<svg xmlns="http://www.w3.org/2000/svg" xmlns:xlink="http://www.w3.org/1999/xlink" viewBox="0 0 821.52 415.26"><defs><style>.cls-1{fill:url(#linear-gradient);}.cls-2{fill:#ed1c24;}</style><linearGradient id="linear-gradient" x1="-34.44" y1="207.63" x2="346.88" y2="207.63" gradientUnits="userSpaceOnUse"><stop offset="0"/><stop offset="0" stop-color="#010000"/><stop offset="0.07" stop-color="#320608"/><stop offset="0.15" stop-color="#5e0b0e"/><stop offset="0.23" stop-color="#841014"/><stop offset="0.32" stop-color="#a51319"/><stop offset="0.41" stop-color="#bf171d"/><stop offset="0.52" stop-color="#d41920"/><stop offset="0.63" stop-color="#e21b22"/><stop offset="0.77" stop-color="#ea1c24"/><stop offset="1" stop-color="#ed1c24"/></linearGradient></defs><g id="Layer_2" data-name="Layer 2"><g id="Layer_1-2" data-name="Layer 1"><path class="cls-1" d="M282.86,192.38c-8.84.61-14.59,7.59-14.59,15.81V262a5.43,5.43,0,0,1-5.44,5.44H235.69a5.43,5.43,0,0,1-5.43-5.44V172a5.43,5.43,0,0,1,5.43-5.43h21.08a5.42,5.42,0,0,1,5.36,4.56,5.44,5.44,0,0,0,8.82,3.32,46.14,46.14,0,0,1,23.35-9.84C309.81,137.67,332.43,116,325.84,79,316.31,25.37,259.23-9.88,198.3,2.47,107.87,20.82,50.24,79.61,14.63,166.55c-35.72,87.19-5.51,214.72,84.9,241.53,86,25.51,162.94-21.69,190.45-67.6,15.23-25.43-3.71-63.3-8.78-123.25A80.53,80.53,0,0,1,282.86,192.38ZM164.54,269.7c-21.47,0-44-7.2-50.28-24.89a7.67,7.67,0,0,1,7.2-10.26h26.46v.77C148.11,245.06,159,247,164.54,247c5.35,0,15.85-.38,15.85-7.45,0-15.09-65.14-1.34-65.14-41.07,0-26.56,24.07-34.2,50.63-34.2,20.1,0,40.61,6.1,46.59,22.28a7.63,7.63,0,0,1-7.21,10.2H184.72a7.48,7.48,0,0,1-6.73-4,8.35,8.35,0,0,0-4.09-3.82,17.59,17.59,0,0,0-8.6-1.91c-3.24,0-13.75,0-13.75,6.49,0,14.52,65.14-.57,65.14,40.5C216.69,261.68,192.24,269.7,164.54,269.7Z"/><path class="cls-2" d="M307.35,164.9a44.34,44.34,0,0,0-13.05-.31c-4.91,8.52-9.1,17.56-11.44,27.79a19.63,19.63,0,0,1,4.89.29,11.15,11.15,0,0,1,9.17,11V262a5.44,5.44,0,0,0,5.44,5.44h27.15a5.43,5.43,0,0,0,5.43-5.44V198.05A33.56,33.56,0,0,0,307.35,164.9Z"/><path class="cls-2" d="M394.29,223.48h63.59a5.8,5.8,0,0,0,5.8-5.8V217c0-36.29-20.63-52.72-56.93-52.72C372.36,164.25,350,181.63,350,217c0,36.31,22.74,52.73,59,52.73,32.81,0,50.95-12.17,54.13-32.29a5.79,5.79,0,0,0-5.73-6.68H431.88a5.71,5.71,0,0,0-5.57,4.21c-1.55,6.12-6.89,10.5-18,10.5-12,0-18-5.45-19.7-15.18A5.79,5.79,0,0,1,394.29,223.48Zm-3.41-26.56c3.05-5.34,8.6-8.41,17.39-8.41,7.67,0,13.07,3.33,15.53,9.08a5.76,5.76,0,0,1-5.39,7.92H396A5.78,5.78,0,0,1,390.88,196.92Z"/><path class="cls-2" d="M587.75,258.24,557.81,211.1a6,6,0,0,1,.64-7.24l25-27.32a6,6,0,0,0-4.4-10h-28a6,6,0,0,0-4.57,2.13l-20,23.85A6,6,0,0,1,516,188.7v-54a6,6,0,0,0-6-6H484a6,6,0,0,0-6,6V261.44a6,6,0,0,0,6,6H510a6,6,0,0,0,6-6V248.16a5.94,5.94,0,0,1,1.81-4.28l6-5.85a6,6,0,0,1,9.25,1.16l15.56,25.37a6,6,0,0,0,5.09,2.85h29A6,6,0,0,0,587.75,258.24Z"/><path class="cls-2" d="M705.54,252.79l-25-39.41a9.5,9.5,0,0,1,1-11.52l17.74-19.37a9.51,9.51,0,0,0-7-15.94H674a9.52,9.52,0,0,0-7.3,3.41L654.07,185a9.52,9.52,0,0,1-16.81-6.11V138.24a9.52,9.52,0,0,0-9.52-9.52h-19a9.52,9.52,0,0,0-9.52,9.52V257.9a9.51,9.51,0,0,0,9.52,9.51h19a9.51,9.51,0,0,0,9.52-9.51v-8.24a9.52,9.52,0,0,1,2.88-6.83l1.77-1.72A9.52,9.52,0,0,1,656.65,243l12.21,19.9a9.51,9.51,0,0,0,8.11,4.54h20.54A9.52,9.52,0,0,0,705.54,252.79Z"/><path class="cls-2" d="M817.15,166.55H787.89a4.37,4.37,0,0,0-4.38,4.38v54.83c0,9.28-7.34,17-18.18,15.72a12,12,0,0,1-10.48-12V170.93a4.37,4.37,0,0,0-4.38-4.38H721.22a4.37,4.37,0,0,0-4.38,4.38V235a34.55,34.55,0,0,0,31.89,34.56,46,46,0,0,0,33.42-11.1,4.36,4.36,0,0,1,7.2,2.58l.44,2.67a4.39,4.39,0,0,0,4.32,3.67h23a4.37,4.37,0,0,0,4.37-4.38v-92.1A4.36,4.36,0,0,0,817.15,166.55Z"/></g></g></svg>